# Blender 3.3.1
# www.blender.org
mtllib mre.mtl
o MRE
v -0.080000 0.000000 0.110000
v 0.080000 0.000000 0.110000
v -0.080000 0.000000 -0.110000
v 0.080000 0.000000 -0.110000
v -0.080000 0.033894 -0.110000
v -0.080000 0.033894 0.110000
v 0.080000 0.033894 0.110000
v 0.080000 0.033894 -0.110000
v -0.086917 0.016947 0.119511
v -0.086917 0.016947 -0.119511
v 0.086917 0.016947 -0.119511
v 0.086917 0.016947 0.119511
vn -0.6055 -0.6629 0.4404
vn -0.6055 -0.6629 -0.4404
vn 0.6055 -0.6629 -0.4404
vn 0.6055 -0.6629 0.4404
vn -0.6055 0.6629 0.4404
vn 0.6055 0.6629 0.4404
vn 0.6055 0.6629 -0.4404
vn -0.6055 0.6629 -0.4404
vn -0.8087 -0.0000 -0.5882
vn -0.8087 -0.0000 0.5882
vn 0.8087 -0.0000 -0.5882
vn 0.8087 -0.0000 0.5882
vt 0.509494 0.000000
vt 0.000000 0.000000
vt 1.000000 0.000000
vt 0.509494 1.000000
vt 0.000000 1.000000
vt 1.000000 1.000000
vt 0.000000 1.000000
vt 0.000000 0.000000
vt 0.512658 0.000000
vt 1.000000 0.000000
vt 0.512658 1.000000
vt 1.000000 1.000000
vt 0.000000 0.000000
vt 0.000000 1.000000
vt 1.000000 1.000000
vt 1.000000 0.000000
s 1
usemtl MRE
f 1/1/1 3/4/2 4/6/3 2/3/4
f 6/8/5 7/9/6 8/11/7 5/7/8
f 10/14/9 9/13/10 6/8/5 5/7/8
f 11/15/11 10/14/9 5/7/8 8/12/7
f 9/13/10 12/16/12 7/10/6 6/8/5
f 12/16/12 11/15/11 8/12/7 7/10/6
f 2/3/4 4/6/3 11/15/11 12/16/12
f 1/2/1 2/3/4 12/16/12 9/13/10
f 4/6/3 3/5/2 10/14/9 11/15/11
f 3/5/2 1/2/1 9/13/10 10/14/9
